Coordinates
version=1
nRows=6
nColumns=107
inDegrees=yes

Units are S.I. units (second, meters, Newtons, ...)
If the header above contains a line with 'inDegrees', this indicates whether rotational values are in degrees (yes) or radians (no).

endheader
time	sternoclavicular_r2	sternoclavicular_r3	unrotscap_r3	unrotscap_r2	acromioclavicular_r2	acromioclavicular_r3	acromioclavicular_r1	unrothum_r1	unrothum_r3	unrothum_r2	elv_angle	shoulder_elv	shoulder1_r2	shoulder_rot	elbow_flexion	pro_sup	deviation	flexion	proximal_distal_r1	proximal_distal_r3	cmc_flexion	cmc_abduction	mp_flexion	ip_flexion	mcp2_flexion	mcp2_abduction	pm2_flexion	md2_flexion	mcp3_flexion	mcp3_abduction	pm3_flexion	md3_flexion	mcp4_flexion	mcp4_abduction	pm4_flexion	md4_flexion	mcp5_flexion	mcp5_abduction	pm5_flexion	md5_flexion	bicpt_tx	bicpt_ty	bicpt_tz	bicpt2_tx	bicpt2_ty	bicpt2_tz	ptpt_tx	ptpt_ty	ptpt_tz	FCUpt_tx	FCUpt_ty	FCUpt_tz	EDCpt_tx	EDCpt_ty	EDCpt_tz	APLpt_tx	APLpt_ty	APLpt_tz	FPLpt_tx	FPLpt_ty	FPLpt_tz	FPLpt2_tx	FPLpt2_ty	FPLpt2_tz	PEC1pt2_tx	PEC1pt2_ty	PEC1pt2_tz	PEC1pt3_tx	PEC1pt3_ty	PEC1pt3_tz	PEC2pt2_tx	PEC2pt2_ty	PEC2pt2_tz	PEC2pt3_tx	PEC2pt3_ty	PEC2pt3_tz	PEC3pt2_tx	PEC3pt2_ty	PEC3pt2_tz	PEC3pt3_tx	PEC3pt3_ty	PEC3pt3_tz	DELT2pt2a_tx	DELT2pt2a_ty	DELT2pt2a_tz	DELT2pt2_tx	DELT2pt2_ty	DELT2pt2_tz	LAT1pt2_tx	LAT1pt2_ty	LAT1pt2_tz	LAT1pt3_tx	LAT1pt3_ty	LAT1pt3_tz	LAT2pt2_tx	LAT2pt2_ty	LAT2pt2_tz	LAT2pt3_tx	LAT2pt3_ty	LAT2pt3_tz	LAT3pt2_tx	LAT3pt2_ty	LAT3pt2_tz	LAT3pt3_tx	LAT3pt3_ty	LAT3pt3_tz
      1.06666667	     -0.32220365	      0.13647026	     -0.13647026	      0.32220365	     -0.06523969	      0.52724419	      0.23699264	     -0.23699264	     -0.52724419	      0.06523969	     99.56404160	     76.28457885	     -1.73772034	    -24.07877702	     27.99170180	     33.68648043	      0.07194681	     -0.10860610	      0.09340507	     -0.05430305	     27.41046843	      7.60151445	      4.04967656	      8.34790140	     -6.35380862	     13.89475649	      6.92816310	    -34.03872111	    -37.32350486	      6.03051793	     10.98507267	     14.77834114	    -36.19410089	     -1.34440082	     -3.14470602	     22.04647910	    -41.09148557	    -14.39459831	    -10.87544009	      4.98163553	      0.00082588	     -0.03080828	     -0.00481677	      0.01651702	     -0.01780408	     -0.00811606	      0.00506095	     -0.06650946	     -0.00276363	      0.00715075	     -0.18362074	     -0.00032659	     -0.00404237	      0.00112957	      0.00018094	      0.00010124	      0.00004050	      0.00020248	      0.00012959	      0.00038877	      0.00021868	     -0.00000445	     -0.00026785	     -0.00032143	      0.00250044	      0.00877273	      0.00610277	     -0.00817941	      0.01974925	     -0.01873212	      0.00250044	      0.00877273	      0.00610277	      0.00055094	      0.01830831	     -0.00962034	      0.00395239	      0.00487841	      0.01597851	      0.00000000	      0.00778273	      0.00000000	     -0.00716228	     -0.03309906	     -0.00641724	      0.01601867	     -0.00056039	     -0.00484139	     -0.00088999	      0.01491789	     -0.00610277	      0.00245806	      0.02152922	     -0.01779975	     -0.00597563	      0.01292601	     -0.00546707	     -0.01245983	      0.02729295	     -0.03055624	     -0.02339396	      0.01445170	     -0.00733180	     -0.01551121	      0.03153099	     -0.03818470
      1.10000000	     -0.32282244	      0.13673235	     -0.13673235	      0.32282244	     -0.06536498	      0.52825676	      0.23744778	     -0.23744778	     -0.52825676	      0.06536498	     99.41900340	     76.43108237	     -1.73518895	    -23.09137882	     27.85356137	     31.86641847	      0.07202189	     -0.13117837	      0.09349812	     -0.06558918	     26.84190284	      7.85949082	      5.57531004	      5.58441391	     -5.45560300	     13.89407784	      6.67492382	    -35.93593359	    -37.25530860	      6.04152896	     10.13609869	     15.20402614	    -36.01393454	     -1.33679027	     -4.19981095	     23.74775509	    -41.94417821	    -14.37884743	    -11.01979865	      4.98380997	      0.00082131	     -0.03079244	     -0.00481422	      0.01648354	     -0.01776656	     -0.00829192	      0.00519543	     -0.06642250	     -0.00261701	      0.00697157	     -0.18365487	     -0.00030377	     -0.00382396	      0.00105959	      0.00018688	      0.00011980	      0.00004792	      0.00023961	      0.00015335	      0.00046005	      0.00025878	     -0.00000341	     -0.00027078	     -0.00032493	      0.00250524	      0.00878958	      0.00611449	     -0.00819512	      0.01978717	     -0.01876809	      0.00250524	      0.00878958	      0.00611449	      0.00055200	      0.01834348	     -0.00963882	      0.00395793	      0.00488777	      0.01599200	      0.00000000	      0.00781287	      0.00000000	     -0.00717604	     -0.03316263	     -0.00644225	      0.01549623	     -0.00052873	     -0.00444502	     -0.00089170	      0.01494654	     -0.00611449	      0.00246278	      0.02157057	     -0.01783393	     -0.00598711	      0.01295083	     -0.00547757	     -0.01248375	      0.02734537	     -0.03061492	     -0.02343889	      0.01447946	     -0.00734588	     -0.01554100	      0.03159154	     -0.03825804
      1.13333333	     -0.32052725	      0.13576022	     -0.13576022	      0.32052725	     -0.06490025	      0.52450098	      0.23575958	     -0.23575958	     -0.52450098	      0.06490025	     99.94314012	     75.88767667	     -1.74433686	    -26.03438988	     28.00274731	     34.68015339	      0.05888779	     -0.13540788	      0.07708072	     -0.06770394	     27.10695387	      7.54067022	      5.23706746	      6.60957590	     -6.18616930	     13.85327939	      6.76751156	    -35.78565989	    -37.67900560	      6.09919297	     10.34305623	     14.93208758	    -36.41035952	     -1.29614582	     -4.53998039	     23.10826194	    -42.69399680	    -14.38765326	    -11.04172539	      4.98066200	      0.00082624	     -0.03080954	     -0.00481697	      0.01653212	     -0.01780708	     -0.00801810	      0.00498753	     -0.06655694	     -0.00284367	      0.00724901	     -0.18360171	     -0.00033800	     -0.00416161	      0.00116820	      0.00017695	      0.00012321	      0.00004928	      0.00024641	      0.00015771	      0.00047312	      0.00026613	     -0.00000391	     -0.00026948	     -0.00032337	      0.00248743	      0.00872709	      0.00607102	     -0.00813685	      0.01964649	     -0.01863466	      0.00248743	      0.00872709	      0.00607102	      0.00054808	      0.01821306	     -0.00957029	      0.00393735	      0.00485302	      0.01594171	      0.00000000	      0.00770139	      0.00000000	     -0.00712502	     -0.03292685	     -0.00634971	      0.01701533	     -0.00062409	     -0.00566683	     -0.00088536	      0.01484027	     -0.00607102	      0.00244527	      0.02141721	     -0.01770714	     -0.00594454	      0.01285876	     -0.00543862	     -0.01239500	      0.02715095	     -0.03039726	     -0.02327224	      0.01437651	     -0.00729366	     -0.01543051	      0.03136693	     -0.03798603
      1.16666667	     -0.32065107	      0.13581266	     -0.13581266	      0.32065107	     -0.06492532	      0.52470360	      0.23585066	     -0.23585066	     -0.52470360	      0.06492532	     99.92811161	     75.91699196	     -1.74407456	    -26.04188464	     28.00599749	     34.68465128	      0.05898312	     -0.13554687	      0.07720080	     -0.06777344	     27.10504377	      7.54225234	      5.23611506	      6.60975757	     -6.18964979	     13.85426334	      6.76686414	    -35.78581160	    -37.68559820	      6.09815252	     10.34213473	     14.93169643	    -36.41410590	     -1.29668574	     -4.54159309	     23.10775439	    -42.70047273	    -14.38689862	    -11.04424489	      4.98037878	      0.00082635	     -0.03080992	     -0.00481703	      0.01653216	     -0.01780797	     -0.00801764	      0.00498720	     -0.06655715	     -0.00284403	      0.00724945	     -0.18360162	     -0.00033805	     -0.00416215	      0.00116838	      0.00017692	      0.00012330	      0.00004932	      0.00024659	      0.00015782	      0.00047346	      0.00026632	     -0.00000390	     -0.00026947	     -0.00032336	      0.00248839	      0.00873046	      0.00607336	     -0.00814000	      0.01965408	     -0.01864185	      0.00248839	      0.00873046	      0.00607336	      0.00054829	      0.01822009	     -0.00957398	      0.00393847	      0.00485490	      0.01594443	      0.00000000	      0.00770739	      0.00000000	     -0.00712777	     -0.03293957	     -0.00635469	      0.01701861	     -0.00062435	     -0.00567053	     -0.00088570	      0.01484600	     -0.00607336	      0.00244622	      0.02142548	     -0.01771398	     -0.00594684	      0.01286372	     -0.00544072	     -0.01239979	      0.02716144	     -0.03040900	     -0.02328123	      0.01438206	     -0.00729647	     -0.01543647	      0.03137905	     -0.03800070
      1.20000000	     -0.32304237	      0.13682550	     -0.13682550	      0.32304237	     -0.06540951	      0.52861665	      0.23760954	     -0.23760954	     -0.52861665	      0.06540951	     99.37593457	     76.48315319	     -1.73443726	    -22.78701563	     27.74233666	     31.84282420	      0.07468434	     -0.13733734	      0.09679219	     -0.06866867	     27.17291276	      7.57659802	      5.80530011	      5.35321254	     -7.01032063	     13.89450983	      6.73801854	    -37.07106267	    -37.89337319	      5.54721960	      9.47825037	     14.97367140	    -36.36240490	     -1.47585662	     -5.79068907	     24.40515697	    -43.71864128	    -14.36036562	    -11.04013739	      4.96979618	      0.00081763	     -0.03077970	     -0.00481217	      0.01648306	     -0.01773634	     -0.00829417	      0.00519717	     -0.06642138	     -0.00261511	      0.00696925	     -0.18365531	     -0.00030346	     -0.00382113	      0.00105869	      0.00018695	      0.00012472	      0.00004989	      0.00024944	      0.00015964	      0.00047893	      0.00026940	     -0.00000402	     -0.00026912	     -0.00032294	      0.00250695	      0.00879557	      0.00611866	     -0.00820070	      0.01980066	     -0.01878088	      0.00250695	      0.00879557	      0.00611866	      0.00055238	      0.01835597	     -0.00964538	      0.00395989	      0.00489110	      0.01599678	      0.00000000	      0.00782359	      0.00000000	     -0.00718092	     -0.03318522	     -0.00645116	      0.01533257	     -0.00051904	     -0.00432571	     -0.00089230	      0.01495672	     -0.00611866	      0.00246446	      0.02158526	     -0.01784608	     -0.00599119	      0.01295966	     -0.00548130	     -0.01249226	      0.02736400	     -0.03063578	     -0.02345485	      0.01448932	     -0.00735089	     -0.01555159	      0.03161306	     -0.03828410
      1.23333333	     -0.32306037	      0.13683312	     -0.13683312	      0.32306037	     -0.06541315	      0.52864609	      0.23762278	     -0.23762278	     -0.52864609	      0.06541315	     99.44328245	     76.48741387	     -1.73561270	    -22.82275878	     27.60648293	     31.67366207	      0.07205549	     -0.13454894	      0.09354041	     -0.06727447	     27.25332081	      7.54665928	      5.81077064	      5.39604962	     -7.01997407	     13.88230821	      6.73797247	    -37.05412906	    -37.76651140	      5.46811955	      9.58453295	     14.98918680	    -36.24023453	     -1.45405351	     -5.73018950	     24.39482543	    -43.66803672	    -14.34551015	    -11.01721569	      4.97898108	      0.00081314	     -0.03076412	     -0.00480966	      0.01647955	     -0.01769944	     -0.00831028	      0.00520967	     -0.06641329	     -0.00260148	      0.00695265	     -0.18365843	     -0.00030121	     -0.00380083	      0.00105224	      0.00018741	      0.00012250	      0.00004900	      0.00024500	      0.00015680	      0.00047041	      0.00026460	     -0.00000417	     -0.00026870	     -0.00032244	      0.00250709	      0.00879606	      0.00611900	     -0.00820116	      0.01980176	     -0.01878193	      0.00250709	      0.00879606	      0.00611900	      0.00055241	      0.01835699	     -0.00964592	      0.00396005	      0.00489138	      0.01599717	      0.00000000	      0.00782447	      0.00000000	     -0.00718132	     -0.03318707	     -0.00645188	      0.01535185	     -0.00052018	     -0.00433965	     -0.00089235	      0.01495755	     -0.00611900	      0.00246460	      0.02158647	     -0.01784708	     -0.00599152	      0.01296038	     -0.00548160	     -0.01249295	      0.02736552	     -0.03063748	     -0.02345616	      0.01449013	     -0.00735130	     -0.01555245	      0.03161482	     -0.03828623
